<mxfile host="Electron" modified="2023-04-17T03:39:44.604Z" agent="Mozilla/5.0 (Macintosh; Intel Mac OS X 10_15_7) AppleWebKit/537.36 (KHTML, like Gecko) draw.io/21.1.2 Chrome/106.0.5249.199 Electron/21.4.3 Safari/537.36" etag="vFUb7nEOZ8byNrhME_Al" version="21.1.2" type="device" pages="2">
  <diagram name="Page-1" id="sRpapCC4Gg4PM37emW36">
    <mxGraphModel dx="1122" dy="713" grid="1" gridSize="10" guides="1" tooltips="1" connect="1" arrows="1" fold="1" page="1" pageScale="1" pageWidth="850" pageHeight="1100" math="0" shadow="0">
      <root>
        <mxCell id="0" />
        <mxCell id="1" parent="0" />
        <mxCell id="fRBUf07OEB6nVNjpVGdN-1" value="View" style="rounded=0;whiteSpace=wrap;html=1;fillColor=#f5f5f5;strokeColor=#666666;fontColor=#333333;" parent="1" vertex="1">
          <mxGeometry x="260" y="110" width="280" height="120" as="geometry" />
        </mxCell>
        <mxCell id="fRBUf07OEB6nVNjpVGdN-3" style="edgeStyle=orthogonalEdgeStyle;rounded=0;orthogonalLoop=1;jettySize=auto;html=1;" parent="1" source="fRBUf07OEB6nVNjpVGdN-2" target="fRBUf07OEB6nVNjpVGdN-1" edge="1">
          <mxGeometry relative="1" as="geometry" />
        </mxCell>
        <mxCell id="fRBUf07OEB6nVNjpVGdN-2" value="ViewModel" style="rounded=0;whiteSpace=wrap;html=1;fillColor=#dae8fc;strokeColor=#6c8ebf;" parent="1" vertex="1">
          <mxGeometry x="260" y="320" width="280" height="60" as="geometry" />
        </mxCell>
        <mxCell id="fRBUf07OEB6nVNjpVGdN-4" value="LiveData" style="rounded=1;whiteSpace=wrap;html=1;" parent="1" vertex="1">
          <mxGeometry x="470" y="340" width="60" height="30" as="geometry" />
        </mxCell>
        <mxCell id="fRBUf07OEB6nVNjpVGdN-6" style="edgeStyle=orthogonalEdgeStyle;rounded=0;orthogonalLoop=1;jettySize=auto;html=1;entryX=0.5;entryY=1;entryDx=0;entryDy=0;" parent="1" source="fRBUf07OEB6nVNjpVGdN-5" target="fRBUf07OEB6nVNjpVGdN-2" edge="1">
          <mxGeometry relative="1" as="geometry" />
        </mxCell>
        <mxCell id="fRBUf07OEB6nVNjpVGdN-5" value="Repository" style="rounded=0;whiteSpace=wrap;html=1;fillColor=#dae8fc;strokeColor=#6c8ebf;" parent="1" vertex="1">
          <mxGeometry x="260" y="510" width="280" height="60" as="geometry" />
        </mxCell>
        <mxCell id="fRBUf07OEB6nVNjpVGdN-10" style="edgeStyle=orthogonalEdgeStyle;rounded=0;orthogonalLoop=1;jettySize=auto;html=1;" parent="1" source="fRBUf07OEB6nVNjpVGdN-8" target="fRBUf07OEB6nVNjpVGdN-9" edge="1">
          <mxGeometry relative="1" as="geometry" />
        </mxCell>
        <mxCell id="fRBUf07OEB6nVNjpVGdN-8" value="Component" style="rounded=1;whiteSpace=wrap;html=1;" parent="1" vertex="1">
          <mxGeometry x="280" y="180" width="80" height="40" as="geometry" />
        </mxCell>
        <mxCell id="fRBUf07OEB6nVNjpVGdN-9" value="Screen" style="rounded=1;whiteSpace=wrap;html=1;" parent="1" vertex="1">
          <mxGeometry x="450" y="180" width="80" height="40" as="geometry" />
        </mxCell>
        <mxCell id="fRBUf07OEB6nVNjpVGdN-12" style="edgeStyle=orthogonalEdgeStyle;rounded=0;orthogonalLoop=1;jettySize=auto;html=1;" parent="1" source="fRBUf07OEB6nVNjpVGdN-11" target="fRBUf07OEB6nVNjpVGdN-5" edge="1">
          <mxGeometry relative="1" as="geometry">
            <Array as="points">
              <mxPoint x="120" y="540" />
            </Array>
          </mxGeometry>
        </mxCell>
        <mxCell id="fRBUf07OEB6nVNjpVGdN-11" value="Local Device Data" style="rounded=0;whiteSpace=wrap;html=1;fillColor=#dae8fc;strokeColor=#6c8ebf;" parent="1" vertex="1">
          <mxGeometry x="50" y="650" width="160" height="60" as="geometry" />
        </mxCell>
        <mxCell id="fRBUf07OEB6nVNjpVGdN-14" style="edgeStyle=orthogonalEdgeStyle;rounded=0;orthogonalLoop=1;jettySize=auto;html=1;" parent="1" source="fRBUf07OEB6nVNjpVGdN-13" target="fRBUf07OEB6nVNjpVGdN-5" edge="1">
          <mxGeometry relative="1" as="geometry" />
        </mxCell>
        <mxCell id="fRBUf07OEB6nVNjpVGdN-13" value="Room Data" style="rounded=0;whiteSpace=wrap;html=1;fillColor=#f5f5f5;fontColor=#333333;strokeColor=#666666;" parent="1" vertex="1">
          <mxGeometry x="320" y="650" width="160" height="60" as="geometry" />
        </mxCell>
        <mxCell id="fRBUf07OEB6nVNjpVGdN-16" style="edgeStyle=orthogonalEdgeStyle;rounded=0;orthogonalLoop=1;jettySize=auto;html=1;entryX=1;entryY=0.5;entryDx=0;entryDy=0;" parent="1" source="fRBUf07OEB6nVNjpVGdN-15" target="fRBUf07OEB6nVNjpVGdN-5" edge="1">
          <mxGeometry relative="1" as="geometry">
            <Array as="points">
              <mxPoint x="640" y="540" />
            </Array>
          </mxGeometry>
        </mxCell>
        <mxCell id="fRBUf07OEB6nVNjpVGdN-15" value="Network Data" style="rounded=0;whiteSpace=wrap;html=1;fillColor=#f5f5f5;fontColor=#333333;strokeColor=#666666;" parent="1" vertex="1">
          <mxGeometry x="560" y="650" width="160" height="60" as="geometry" />
        </mxCell>
      </root>
    </mxGraphModel>
  </diagram>
  <diagram id="LP2CfJZ9OAqAxybTwg8y" name="Page-2">
    <mxGraphModel dx="2074" dy="1214" grid="1" gridSize="10" guides="1" tooltips="1" connect="1" arrows="1" fold="1" page="1" pageScale="1" pageWidth="850" pageHeight="1100" math="0" shadow="0">
      <root>
        <mxCell id="0" />
        <mxCell id="1" parent="0" />
        <mxCell id="rH5ZicOUF60-Bdg3fn3r-4" value="File&lt;br&gt;" style="swimlane;fontStyle=1;align=center;verticalAlign=top;childLayout=stackLayout;horizontal=1;startSize=26;horizontalStack=0;resizeParent=1;resizeParentMax=0;resizeLast=0;collapsible=1;marginBottom=0;whiteSpace=wrap;html=1;" vertex="1" parent="1">
          <mxGeometry x="170" y="480" width="160" height="190" as="geometry" />
        </mxCell>
        <mxCell id="rH5ZicOUF60-Bdg3fn3r-6" value="" style="line;strokeWidth=1;fillColor=none;align=left;verticalAlign=middle;spacingTop=-1;spacingLeft=3;spacingRight=3;rotatable=0;labelPosition=right;points=[];portConstraint=eastwest;strokeColor=inherit;" vertex="1" parent="rH5ZicOUF60-Bdg3fn3r-4">
          <mxGeometry y="26" width="160" height="8" as="geometry" />
        </mxCell>
        <mxCell id="rH5ZicOUF60-Bdg3fn3r-7" value="&lt;p style=&quot;border-color: var(--border-color); margin: 0px 0px 0px 4px;&quot;&gt;+ getName(): String&lt;br style=&quot;border-color: var(--border-color);&quot;&gt;+ getLastModified(): Long&lt;/p&gt;&lt;p style=&quot;border-color: var(--border-color); margin: 0px 0px 0px 4px;&quot;&gt;+ getCount(): Int&lt;/p&gt;&lt;p style=&quot;border-color: var(--border-color); margin: 0px 0px 0px 4px;&quot;&gt;+ getPath(): String&lt;/p&gt;&lt;p style=&quot;border-color: var(--border-color); margin: 0px 0px 0px 4px;&quot;&gt;+ getPathWithOutName(): String&lt;/p&gt;&lt;p style=&quot;border-color: var(--border-color); margin: 0px 0px 0px 4px;&quot;&gt;+ getExtension() : String&lt;br style=&quot;border-color: var(--border-color);&quot;&gt;+ getSize() : Long&lt;/p&gt;&lt;p style=&quot;border-color: var(--border-color); margin: 0px 0px 0px 4px;&quot;&gt;+ isFile() : Boolean&lt;br style=&quot;border-color: var(--border-color);&quot;&gt;&lt;/p&gt;&lt;p style=&quot;border-color: var(--border-color); margin: 0px 0px 0px 4px;&quot;&gt;+ isFolder() : Boolean&lt;/p&gt;" style="text;strokeColor=none;fillColor=none;align=left;verticalAlign=top;spacingLeft=4;spacingRight=4;overflow=hidden;rotatable=0;points=[[0,0.5],[1,0.5]];portConstraint=eastwest;whiteSpace=wrap;html=1;" vertex="1" parent="rH5ZicOUF60-Bdg3fn3r-4">
          <mxGeometry y="34" width="160" height="156" as="geometry" />
        </mxCell>
        <mxCell id="rH5ZicOUF60-Bdg3fn3r-8" value="Folder&lt;br&gt;" style="swimlane;fontStyle=1;align=center;verticalAlign=top;childLayout=stackLayout;horizontal=1;startSize=26;horizontalStack=0;resizeParent=1;resizeParentMax=0;resizeLast=0;collapsible=1;marginBottom=0;whiteSpace=wrap;html=1;" vertex="1" parent="1">
          <mxGeometry x="520" y="480" width="160" height="190" as="geometry" />
        </mxCell>
        <mxCell id="rH5ZicOUF60-Bdg3fn3r-9" value="- children: iFile" style="text;strokeColor=none;fillColor=none;align=left;verticalAlign=top;spacingLeft=4;spacingRight=4;overflow=hidden;rotatable=0;points=[[0,0.5],[1,0.5]];portConstraint=eastwest;whiteSpace=wrap;html=1;" vertex="1" parent="rH5ZicOUF60-Bdg3fn3r-8">
          <mxGeometry y="26" width="160" height="26" as="geometry" />
        </mxCell>
        <mxCell id="rH5ZicOUF60-Bdg3fn3r-10" value="" style="line;strokeWidth=1;fillColor=none;align=left;verticalAlign=middle;spacingTop=-1;spacingLeft=3;spacingRight=3;rotatable=0;labelPosition=right;points=[];portConstraint=eastwest;strokeColor=inherit;" vertex="1" parent="rH5ZicOUF60-Bdg3fn3r-8">
          <mxGeometry y="52" width="160" height="8" as="geometry" />
        </mxCell>
        <mxCell id="rH5ZicOUF60-Bdg3fn3r-11" value="+ add(iFile)" style="text;strokeColor=none;fillColor=none;align=left;verticalAlign=top;spacingLeft=4;spacingRight=4;overflow=hidden;rotatable=0;points=[[0,0.5],[1,0.5]];portConstraint=eastwest;whiteSpace=wrap;html=1;" vertex="1" parent="rH5ZicOUF60-Bdg3fn3r-8">
          <mxGeometry y="60" width="160" height="26" as="geometry" />
        </mxCell>
        <mxCell id="rH5ZicOUF60-Bdg3fn3r-16" value="+ remove(iFile)" style="text;strokeColor=none;fillColor=none;align=left;verticalAlign=top;spacingLeft=4;spacingRight=4;overflow=hidden;rotatable=0;points=[[0,0.5],[1,0.5]];portConstraint=eastwest;whiteSpace=wrap;html=1;" vertex="1" parent="rH5ZicOUF60-Bdg3fn3r-8">
          <mxGeometry y="86" width="160" height="26" as="geometry" />
        </mxCell>
        <mxCell id="rH5ZicOUF60-Bdg3fn3r-17" value="+ getChildren() : iFile[]" style="text;strokeColor=none;fillColor=none;align=left;verticalAlign=top;spacingLeft=4;spacingRight=4;overflow=hidden;rotatable=0;points=[[0,0.5],[1,0.5]];portConstraint=eastwest;whiteSpace=wrap;html=1;" vertex="1" parent="rH5ZicOUF60-Bdg3fn3r-8">
          <mxGeometry y="112" width="160" height="26" as="geometry" />
        </mxCell>
        <mxCell id="rH5ZicOUF60-Bdg3fn3r-18" value="+ sort(type : String) : iFile[]" style="text;strokeColor=none;fillColor=none;align=left;verticalAlign=top;spacingLeft=4;spacingRight=4;overflow=hidden;rotatable=0;points=[[0,0.5],[1,0.5]];portConstraint=eastwest;whiteSpace=wrap;html=1;" vertex="1" parent="rH5ZicOUF60-Bdg3fn3r-8">
          <mxGeometry y="138" width="160" height="26" as="geometry" />
        </mxCell>
        <mxCell id="rH5ZicOUF60-Bdg3fn3r-33" value="..." style="text;strokeColor=none;fillColor=none;align=left;verticalAlign=top;spacingLeft=4;spacingRight=4;overflow=hidden;rotatable=0;points=[[0,0.5],[1,0.5]];portConstraint=eastwest;whiteSpace=wrap;html=1;" vertex="1" parent="rH5ZicOUF60-Bdg3fn3r-8">
          <mxGeometry y="164" width="160" height="26" as="geometry" />
        </mxCell>
        <mxCell id="rH5ZicOUF60-Bdg3fn3r-12" value="" style="endArrow=diamondThin;endFill=0;endSize=24;html=1;rounded=0;entryX=0.5;entryY=0;entryDx=0;entryDy=0;exitX=1;exitY=0.5;exitDx=0;exitDy=0;" edge="1" parent="1" source="rH5ZicOUF60-Bdg3fn3r-32" target="rH5ZicOUF60-Bdg3fn3r-8">
          <mxGeometry width="160" relative="1" as="geometry">
            <mxPoint x="460" y="285" as="sourcePoint" />
            <mxPoint x="670" y="310" as="targetPoint" />
          </mxGeometry>
        </mxCell>
        <mxCell id="rH5ZicOUF60-Bdg3fn3r-14" value="" style="endArrow=block;dashed=1;endFill=0;endSize=12;html=1;rounded=0;exitX=0.5;exitY=0;exitDx=0;exitDy=0;" edge="1" parent="1" source="rH5ZicOUF60-Bdg3fn3r-4" target="rH5ZicOUF60-Bdg3fn3r-32">
          <mxGeometry width="160" relative="1" as="geometry">
            <mxPoint x="200" y="390" as="sourcePoint" />
            <mxPoint x="405" y="310" as="targetPoint" />
          </mxGeometry>
        </mxCell>
        <mxCell id="rH5ZicOUF60-Bdg3fn3r-15" value="" style="endArrow=block;dashed=1;endFill=0;endSize=12;html=1;rounded=0;entryX=0.5;entryY=1;entryDx=0;entryDy=0;" edge="1" parent="1" source="rH5ZicOUF60-Bdg3fn3r-8" target="rH5ZicOUF60-Bdg3fn3r-32">
          <mxGeometry width="160" relative="1" as="geometry">
            <mxPoint x="580" y="500" as="sourcePoint" />
            <mxPoint x="405" y="310" as="targetPoint" />
          </mxGeometry>
        </mxCell>
        <mxCell id="rH5ZicOUF60-Bdg3fn3r-32" value="&lt;p style=&quot;margin:0px;margin-top:4px;text-align:center;&quot;&gt;&lt;i&gt;&amp;lt;&amp;lt;Interface&amp;gt;&amp;gt;&lt;/i&gt;&lt;br&gt;&lt;b&gt;iFile&lt;/b&gt;&lt;/p&gt;&lt;hr size=&quot;1&quot;&gt;&lt;p style=&quot;margin:0px;margin-left:4px;&quot;&gt;+ getName(): String&lt;br&gt;+&amp;nbsp;getLastModified&lt;span style=&quot;background-color: initial;&quot;&gt;(): Long&lt;/span&gt;&lt;/p&gt;&lt;p style=&quot;margin:0px;margin-left:4px;&quot;&gt;+ getCount(): Int&lt;/p&gt;&lt;p style=&quot;margin:0px;margin-left:4px;&quot;&gt;+ getPath(): String&lt;/p&gt;&lt;p style=&quot;margin:0px;margin-left:4px;&quot;&gt;+ getPathWithOutName(): String&lt;/p&gt;&lt;p style=&quot;margin:0px;margin-left:4px;&quot;&gt;+ getExtension() : String&lt;br&gt;+ getSize() : Long&lt;/p&gt;&lt;p style=&quot;margin:0px;margin-left:4px;&quot;&gt;+ isFile() : Boolean&lt;br&gt;&lt;/p&gt;&lt;p style=&quot;margin:0px;margin-left:4px;&quot;&gt;+ isFolder() : Boolean&lt;/p&gt;" style="verticalAlign=top;align=left;overflow=fill;fontSize=12;fontFamily=Helvetica;html=1;whiteSpace=wrap;" vertex="1" parent="1">
          <mxGeometry x="270" y="100" width="190" height="180" as="geometry" />
        </mxCell>
      </root>
    </mxGraphModel>
  </diagram>
</mxfile>
